<svg xmlns="http://www.w3.org/2000/svg" version="1.1" xmlns:xlink="http://www.w3.org/1999/xlink" width="512" height="512" x="0" y="0" viewBox="0 0 512 512" style="enable-background:new 0 0 512 512" xml:space="preserve" class=""><g><path fill="#e73f46" d="M71.91 235.84h27.54v11.37H71.91zM442.14 247.22H414.6v-11.37h27.54zM305.09 133.75h-98.32a9.6 9.6 0 0 1-9.55-10.58l4.15-40.1a9.59 9.59 0 0 1 9.54-8.6 297.32 297.32 0 0 1 90 0 9.6 9.6 0 0 1 9.54 8.6l4.15 40.1a9.59 9.59 0 0 1-9.51 10.58z" opacity="1" data-original="#e73f46"></path><path fill="#231f20" d="M252.77 92.45q.89 4 1.66 8a2.83 2.83 0 0 0 1.06 1.75 4.48 4.48 0 0 0 2.75.77c.59 0 .8-.7.28-1.13a4.49 4.49 0 0 1-.47-1.44c-1.43-8.82-2.5-13.79-2.68-15a21.43 21.43 0 0 0-1-4.27 4.68 4.68 0 0 0-2.5-3c-1.27-.51-3.88-.46-3.61.87-.25 8.23-5.5 15.54-5.07 22.19.23 2.27 1.61 2.6 2.68 1.89a.74.74 0 0 0 .4-.73 15.5 15.5 0 0 1-.42-2.41 23.79 23.79 0 0 1 .9-7.3c1.98-.05 4-.15 6.02-.19zm-3-11.41c.87 1.88 1.31 3.92 2.67 10.06-1.8.05-3.61.13-5.42.25a105.1 105.1 0 0 0 2.8-10.35zM285.23 105.46c.13-.81-.49-.28-.41-2 .08-2.18.3-2.59 4.27-19.25.45-1.93-1.38-2.9-3.33-3.3-.66-.13-1.26.39-.81 1a3.89 3.89 0 0 1-.07 1.8c-4.68 22.15-2.56 11.35-3.46 15.9a12.21 12.21 0 0 0-.27 4.29 2.69 2.69 0 0 0 3.61 2.06.67.67 0 0 0 .47-.5zM238.64 77.85c.16 1.38-1 1.6-1.86 1.7-1 .09-5.45.33-11.78 1.22-5.43.73-4 4.2-1.32 3.89.43-.1.71-.41.63-.78-.31-1.38.92-1.7 1.68-1.85.24 0 1.18-.19 2.83-.37.38.61.54 1.81 1.23 5.79.19 1.09 1.55 9 1.71 10.15a15.85 15.85 0 0 0 1.6 5.77 2.67 2.67 0 0 0 4.11.58.68.68 0 0 0-.16-1.17c-1.36-.58-2.18-9.45-3.92-20.66a2.32 2.32 0 0 0-.35-.91c3.38-.28 5.18-.36 5.38-.39 1.37-.16 3.29-.72 3.16-2.09-.18-1.73-3.07-2.05-2.94-.88zM276.13 101.92c-1-.87-3.74-9.92-4.13-11.21 1.33-1.13 2.62-2.31 3.91-3.55 2.21-2.14 5.95-7 2.91-7.43a1.7 1.7 0 0 0-1.71.44 1.44 1.44 0 0 0-.53.82c-.12.07-.42 3.52-5.13 8-.65-2-1.34-4.07-2.07-6.09-1-2.6-2.25-4.06-3.73-4.4a10.17 10.17 0 0 0-1.69-.25c-1.11-.06-1.68 0-1.74.29-.07.42-.2.72.76 1.25 1.12 1.21 4.26 11 4.76 12.53a20.38 20.38 0 0 0-5.74 7.61c-.52 1.36-.83 3.13.62 3.2a2.08 2.08 0 0 0 .9-.13c1-.62.93-1.7 1.08-2.24a15.21 15.21 0 0 1 3.74-6.63c.48 1.42 2.16 5.85 2.76 7.15.75 1.6 1.73 2.82 3.43 3.07a1.91 1.91 0 0 0 1.7-.41c.62-.59.82-1.17-.1-2.02z" opacity="1" data-original="#231f20"></path><rect width="68.15" height="101.54" x="65.33" y="329.74" fill="#2d1929" rx="21.37" opacity="1" data-original="#2d1929"></rect><rect width="68.15" height="101.54" x="380.17" y="329.74" fill="#2d1929" rx="21.37" opacity="1" data-original="#2d1929"></rect><path fill="#efbd42" d="m418.61 255.56-8.74-102.85a27.84 27.84 0 0 0-12.56-21c-5.16-11.15-66.48-19.94-141.38-19.94s-136.23 8.79-141.39 19.94a27.84 27.84 0 0 0-12.56 21l-8.74 102.85A27.89 27.89 0 0 0 121 285.8h269.8a27.87 27.87 0 0 0 27.81-30.24z" opacity="1" data-original="#efbd42" class=""></path><path fill="#efbd42" d="M465.19 358.11 458 304.83c-5.55-41.25-45.07-72.31-92-72.31H152.49c-50.73 0-93.44 33.57-99.44 78.15l-6.39 47.44a12.33 12.33 0 0 0 2.85 9.59c2.88 13.06 94.19 23.54 206.42 23.54s203.53-10.48 206.41-23.54a12.33 12.33 0 0 0 2.85-9.59z" opacity="1" data-original="#efbd42" class=""></path><path fill="#40c2d6" d="M121 274.56a16.62 16.62 0 0 1-16.58-18.05l8.74-102.84a21.53 21.53 0 0 1 11-16C132 132.31 176.85 123 255.93 123s123.89 9.29 131.72 14.6a21.55 21.55 0 0 1 11 16l8.74 102.84a16.63 16.63 0 0 1-16.58 18.05z" opacity="1" data-original="#40c2d6" class=""></path><path fill="#e73f46" d="M463.35 390.19c-.72 3.28-5.24 6-10.31 6.18-131.78 5.11-262.35 5.12-394.22 0-5.08-.2-9.59-2.9-10.32-6.18L43 365.33c-.85-3.81 3.34-6.86 9.14-6.59 133.63 6.19 268.54 6.44 407.59 0 5.8-.27 10 2.78 9.15 6.59zM49.53 211.18h29.89a5.25 5.25 0 0 1 5.25 5.25v25.66a5.13 5.13 0 0 1-5.12 5.13h-30.4A17.12 17.12 0 0 1 32 230.09v-1.41a17.5 17.5 0 0 1 17.53-17.5zM464.9 247.22h-30.39a5.12 5.12 0 0 1-5.12-5.12v-25.7a5.25 5.25 0 0 1 5.25-5.25h29.89a17.5 17.5 0 0 1 17.5 17.5v1.41a17.13 17.13 0 0 1-17.13 17.16z" opacity="1" data-original="#e73f46"></path><path fill="#86ebf9" d="M121 266.38a8.45 8.45 0 0 1-8.44-9.18l8.74-102.84c.78-5.12 4.41-8.83 9.13-10.8 9.59-3.91 50.48-12.36 125.47-12.36s115.87 8.44 125.46 12.37c4.75 2 8.36 5.69 9.13 10.79l8.74 102.84a8.44 8.44 0 0 1-8.43 9.18z" opacity="1" data-original="#86ebf9" class=""></path><path fill="#40c2d6" d="M167.54 183.33h44.7a23.21 23.21 0 0 1 23.21 23.21v68H144v-67.71a23.5 23.5 0 0 1 23.54-23.5z" opacity="1" data-original="#40c2d6" class=""></path><rect width="56.73" height="32.33" x="159.88" y="166.46" fill="#40c2d6" rx="11.5" opacity="1" data-original="#40c2d6" class=""></rect><path fill="#40c2d6" d="M299.92 183.33h44.7a23.21 23.21 0 0 1 23.21 23.21v68h-91.41v-67.71a23.5 23.5 0 0 1 23.5-23.5z" opacity="1" data-original="#40c2d6" class=""></path><rect width="56.73" height="32.33" x="292.26" y="166.46" fill="#40c2d6" rx="11.5" opacity="1" data-original="#40c2d6" class=""></rect><path fill="#2d1929" d="M366.22 266.89a38.84 38.84 0 0 0-77.58 0h-6.14a45 45 0 0 1 89.86 0z" opacity="1" data-original="#2d1929"></path><path fill="#2d1929" d="m324.63 266.89-3.47-37.82h12.55l-3.48 37.82z" opacity="1" data-original="#2d1929"></path><rect width="71.21" height="24.02" x="217.61" y="137.33" fill="#2d1929" rx="6.75" opacity="1" data-original="#2d1929"></rect><path fill="#2d1929" d="M249.79 126.85h6.86v16.1h-6.86z" opacity="1" data-original="#2d1929"></path><rect width="102.22" height="35.85" x="203.84" y="344.67" fill="#2d1929" rx="6.5" opacity="1" data-original="#2d1929"></rect><path fill="#d7981a" d="M93.14 266.89s13.71 35.52 14.52 80.5h29.09s-11.92-66.39-43.61-80.5z" opacity="1" data-original="#d7981a"></path><circle cx="98.23" cy="322.37" r="26.43" fill="#d7981a" opacity="1" data-original="#d7981a"></circle><path fill="#edebeb" d="M98.23 343.69a21.32 21.32 0 1 1 21.32-21.32 21.34 21.34 0 0 1-21.32 21.32z" opacity="1" data-original="#edebeb"></path><path fill="#d7981a" d="M418.61 266.89s-13.71 35.52-14.52 80.5H375s11.92-66.39 43.61-80.5z" opacity="1" data-original="#d7981a"></path><circle cx="413.52" cy="322.37" r="26.43" fill="#d7981a" opacity="1" data-original="#d7981a"></circle><g fill="#edebeb"><path d="M413.52 343.69a21.32 21.32 0 1 0-21.32-21.32 21.34 21.34 0 0 0 21.32 21.32zM122.23 196.79s1.77-47.79 8.23-53.23 62.37-10.08 62.37-10.08-55.77 10.15-59.35 13.73-11.25 49.58-11.25 49.58zM391.22 196.79s-1.8-47.79-8.22-53.23-62.36-10.08-62.36-10.08 55.76 10.15 59.36 13.73 11.22 49.58 11.22 49.58zM115 279.16s16.56 16.78 21.8 39.27 8.37 28.28 20.78 29l24.33 1.41s-23.17-7.54-28.62-13.33-20.42-50.64-38.29-56.35zM394.35 279.16s-16.57 16.78-21.81 39.27-8.37 28.28-20.77 29-24.34 1.41-24.34 1.41 23.17-7.54 28.62-13.33 20.37-50.64 38.3-56.35zM50.17 369s2.55 20.05 5.28 22.21 27.09 2.49 27.09 2.49-19.93-3.75-23.34-6-9.03-18.7-9.03-18.7zM458.32 369s-2.55 20.05-5.28 22.21-27.04 2.52-27.04 2.52 19.94-3.75 23.34-6 8.98-18.73 8.98-18.73z" fill="#edebeb" opacity="1" data-original="#edebeb"></path></g><ellipse cx="254.95" cy="431.52" fill="#2d1929" rx="219.57" ry="16.36" opacity="1" data-original="#2d1929"></ellipse></g></svg>