<svg xmlns="http://www.w3.org/2000/svg" version="1.1" xmlns:xlink="http://www.w3.org/1999/xlink" width="512" height="512" x="0" y="0" viewBox="0 0 512 512" style="enable-background:new 0 0 512 512" xml:space="preserve" class=""><g><circle cx="256" cy="256" r="256" style="" fill="#dd544c" data-original="#dd544c" class=""></circle><path d="M65.503 427c46.865 52.174 114.844 85 190.497 85s143.632-32.826 190.497-85H65.503z" style="" fill="#39375e" data-original="#39375e" class=""></path><path d="M468.261 159.021c0-8.284-6.716-15-15-15H282.667c-8.284 0-15 6.716-15 15 0 8.284-6.716 15-15 15h-43.116c-8.284 0-15 6.716-15 15 0 8.284 6.716 15 15 15h4.978c8.284 0 15 6.716 15 15 0 8.284 6.716 15 15 15h174.045c8.284 0 15-6.716 15-15 0-8.284-6.716-15-15-15h-8.428c-8.284 0-15-6.716-15-15 0-8.284 6.716-15 15-15h43.116c8.283 0 14.999-6.716 14.999-15z" style="" fill="#ef7e7b" data-original="#ef7e7b" class=""></path><path d="M121.425 160.75H63.601l11.772-38.097A5.183 5.183 0 0 1 80.325 119h24.377a5.183 5.183 0 0 1 4.952 3.653l11.771 38.097z" style="" fill="#fffbeb" data-original="#fffbeb" class=""></path><path d="M493.65 370.05v49.74H59.25c-3.68-4.42-7.22-8.96-10.6-13.63-1.52-2.08-3-4.19-4.45-6.33-.99-1.45-1.97-2.92-2.93-4.4-5.3-8.15-10.15-16.62-14.52-25.38-1.52-3.05-2.98-6.14-4.38-9.26a.076.076 0 0 1-.02-.05c-4.07-9.05-7.63-18.39-10.63-27.97a253.842 253.842 0 0 1-8.69-37.27C1.88 288.1 1.05 280.59.56 273 .19 267.38 0 261.71 0 256c0-27.11 4.22-53.24 12.03-77.76 2.1-6.62 4.47-13.12 7.1-19.5H209.2c13.67 0 26.72 5.71 36 15.75l86.13 93.19c3.22 3.49 7.27 6.11 11.77 7.62l127.1 22.63a17.797 17.797 0 0 1 11.81 13.42l.58 2.94 6.96 35.07.16.83 1.43 7.18.68 3.42.38 1.95 1.45 7.31z" style="" fill="#f3d75c" data-original="#f3d75c"></path><path d="M93.751 273h205.101c3.64 0 5.536-4.334 3.065-7.007l-79.858-86.412a4.173 4.173 0 0 0-3.065-1.341H67.778c-2.797 0-4.802 2.697-3.997 5.376l25.973 86.412A4.173 4.173 0 0 0 93.751 273z" style="" fill="#39375e" data-original="#39375e" class=""></path><path d="M119.753 270.027 93.78 183.615c-.805-2.678 1.2-5.375 3.997-5.375h-30c-2.797 0-4.802 2.697-3.997 5.375l25.973 86.412A4.175 4.175 0 0 0 93.751 273h30a4.175 4.175 0 0 1-3.998-2.973z" style="" fill="#272749" data-original="#272749"></path><path d="M65.03 273H.56C.19 267.38 0 261.71 0 256c0-27.11 4.22-53.24 12.03-77.76h27.03c1.84 0 3.47 1.21 4 2.97l25.97 86.41c.81 2.68-1.2 5.38-4 5.38z" style="" fill="#39375e" data-original="#39375e" class=""></path><path d="M493.65 370.05v29.78H44.2c-.99-1.45-1.97-2.92-2.93-4.4-5.3-8.15-10.15-16.62-14.52-25.38-1.52-3.05-2.98-6.14-4.38-9.26h469.45l.38 1.95 1.45 7.31z" style="" fill="#e8c63a" data-original="#e8c63a"></path><path d="M41.922 295.5h37.3v37.27h-37.3zM116.53 295.5h37.3v37.27h-37.3zM191.13 295.5h37.3v37.27h-37.3zM265.73 295.5h37.3v37.27h-37.3zM41.92 332.77v37.28H26.75c-1.52-3.05-2.98-6.14-4.38-9.26a.076.076 0 0 1-.02-.05c-4.07-9.05-7.63-18.39-10.63-27.97h30.2zM79.22 332.77h37.31v37.28H79.22zM153.82 332.77h37.31v37.28h-37.31zM228.43 332.77h37.31v37.28h-37.31z" style="" fill="#fffbeb" data-original="#fffbeb" class=""></path><path d="M41.92 360.74v9.31H26.75c-1.52-3.05-2.98-6.14-4.38-9.26a.076.076 0 0 1-.02-.05h19.57zM79.22 360.74h37.31v9.314H79.22zM153.82 360.74h37.31v9.314h-37.31zM228.43 360.74h37.31v9.314h-37.31z" style="" fill="#d8e0c9" data-original="#d8e0c9" class=""></path><path d="M477.679 350.186h12.041l-7.117-35.896h-43.069c-2.477 0-4.257 2.383-3.553 4.758 5.47 18.468 22.437 31.138 41.698 31.138z" style="" fill="#fffbeb" data-original="#fffbeb" class=""></path><path d="M456.289 319.048c-.703-2.375 1.076-4.758 3.553-4.758h-20.308c-2.477 0-4.257 2.383-3.553 4.758 5.47 18.468 22.437 31.138 41.698 31.138h12.041l-.164-.828c-15.633-3.085-28.613-14.596-33.267-30.31z" style="" fill="#d8e0c9" data-original="#d8e0c9" class=""></path><path d="M504.56 376.53v23.13c0 3.59-2.17 6.5-4.84 6.5H48.65c-1.52-2.08-3-4.19-4.45-6.33-.99-1.45-1.97-2.92-2.93-4.4-5.3-8.15-10.15-16.62-14.52-25.38h472.97c2.67 0 4.84 2.9 4.84 6.48z" style="" fill="#fffbeb" data-original="#fffbeb" class=""></path><path d="M512 402.16v25.39c0 3.7-2.24 6.73-5.02 6.73H72.28c-1.54-1.59-3.07-3.21-4.56-4.84-.01-.02-.03-.03-.05-.05-.72-.79-1.45-1.59-2.17-2.39h.019a246.157 246.157 0 0 1-6.269-7.21c-3.68-4.42-7.22-8.96-10.6-13.63-1.52-2.08-3-4.19-4.45-6.33-.99-1.45-1.97-2.92-2.93-4.4h465.71c2.78 0 5.02 3.02 5.02 6.73z" style="" fill="#d8e0c9" data-original="#d8e0c9" class=""></path><circle cx="378.4" cy="418.93" r="74.17" style="" fill="#39375e" data-original="#39375e" class=""></circle><path d="M390.496 481.003c-40.965 0-74.174-33.209-74.174-74.174 0-17.399 6.007-33.386 16.038-46.037-17.134 13.587-28.137 34.57-28.137 58.136 0 40.965 33.209 74.174 74.174 74.174 23.566 0 44.549-11.003 58.136-28.137-12.651 10.031-28.638 16.038-46.037 16.038z" style="" fill="#272749" data-original="#272749"></path><circle cx="378.4" cy="418.93" r="39.29" style="" fill="#c7ceb6" data-original="#c7ceb6"></circle><path d="M378.435 400.221h-.078a7.009 7.009 0 0 1-6.078-3.493l-8.318-14.342c-4.859 1.917-9.416 4.833-13.345 8.762s-6.845 8.486-8.762 13.345l14.342 8.318a7.009 7.009 0 0 1 3.493 6.078v.078a7.009 7.009 0 0 1-3.493 6.078l-14.342 8.318c1.917 4.859 4.833 9.416 8.762 13.345s8.486 6.845 13.345 8.762l8.318-14.342a7.009 7.009 0 0 1 6.078-3.493h.078a7.009 7.009 0 0 1 6.078 3.493l8.318 14.342c4.859-1.917 9.416-4.833 13.345-8.762s6.845-8.486 8.762-13.345l-14.342-8.318a7.009 7.009 0 0 1-3.493-6.078v-.078a7.009 7.009 0 0 1 3.493-6.078l14.342-8.318c-1.917-4.859-4.833-9.416-8.762-13.345s-8.486-6.845-13.345-8.762l-8.318 14.342a7.007 7.007 0 0 1-6.078 3.493z" style="" fill="#fffbeb" data-original="#fffbeb" class=""></path><circle cx="378.4" cy="418.93" r="25.745" style="" fill="#d8e0c9" data-original="#d8e0c9" class=""></circle><circle cx="378.4" cy="418.93" r="14.05" style="" fill="#fffbeb" data-original="#fffbeb" class=""></circle><path d="M133.641 303h-26.38c-8.221 0-14.886-6.665-14.886-14.886a4.712 4.712 0 0 1 4.712-4.712h46.73a4.712 4.712 0 0 1 4.712 4.712c-.002 8.221-6.667 14.886-14.888 14.886z" style="" fill="#39375e" data-original="#39375e" class=""></path><path d="M110.265 288.114a4.712 4.712 0 0 1 4.712-4.712H97.086a4.712 4.712 0 0 0-4.712 4.712c0 8.221 6.665 14.886 14.886 14.886h17.891c-8.221 0-14.886-6.665-14.886-14.886z" style="" fill="#272749" data-original="#272749"></path></g></svg>